<svg xmlns="http://www.w3.org/2000/svg" width="426" height="120" viewBox="0 0 426 120">
    <path fill="#FFF" fill-rule="evenodd"
          d="M426 62.15v30.793c0 3.857-.706 7.452-2.116 10.786a24.532 24.532 0 0 1-6.104 8.649c-2.66 2.43-5.874 4.308-9.642 5.634-3.767 1.326-7.848 1.988-12.239 1.988-3.748 0-7.052-.262-9.913-.783a29.792 29.792 0 0 1-8.068-2.682c-2.52-1.266-4.846-3.004-6.982-5.212l12.572-12.595c1.491 1.485 3.194 2.561 5.107 3.224 1.915.663 4.02.995 6.317.995 3.828 0 6.578-1.016 8.25-3.043 1.672-2.03 2.509-4.39 2.509-7.082v-4.82c-3.667 3.696-8.442 5.543-14.324 5.543-6.49 0-11.707-1.968-15.656-5.905-1.933-1.929-3.345-4.068-4.23-6.418-.887-2.35-1.432-4.871-1.633-7.563-.202-2.692-.302-6.548-.302-11.57 0-3.857.05-6.81.15-8.858.102-2.049.353-4.148.757-6.297.402-2.15 1.007-4.048 1.814-5.695.805-1.647 1.953-3.214 3.444-4.701 1.853-1.847 4.16-3.294 6.922-4.339 2.76-1.044 5.711-1.567 8.854-1.567 3.263 0 6.044.503 8.34 1.507 2.298 1.004 4.453 2.552 6.468 4.64v-5.423H426V120H0V0h426v62.15zM110.396 21.6c.113.221.232.44.36.656a12.338 12.338 0 0 0 4.502 4.488c1.893 1.107 3.968 1.657 6.225 1.657 2.257 0 4.33-.55 6.226-1.657a12.361 12.361 0 0 0 4.503-4.488c1.108-1.89 1.662-3.957 1.662-6.208 0-2.21-.544-4.258-1.632-6.147-1.088-1.887-2.59-3.394-4.503-4.52-1.915-1.123-4-1.687-6.256-1.687-2.257 0-4.342.564-6.255 1.688-1.915 1.125-3.415 2.632-4.503 4.519-.107.185-.208.372-.304.56h-9.628a9.047 9.047 0 0 0-8.198-7.558L57.206 0l-20.98 20.917c.132-.004.262-.01.394-.01h33.032c7.097 0 12.871 5.757 12.871 12.832v32.933c0 .344-.018.684-.045 1.021l21.313-21.248L101.74 21.6h8.656zM90.274 10.643c-2.396.627-4.169 2.805-4.169 5.388 0 2.525 1.693 4.662 4.007 5.343a5.863 5.863 0 0 1-2.253.448c-3.24 0-5.865-2.618-5.865-5.849 0-3.23 2.626-5.847 5.865-5.847a5.86 5.86 0 0 1 2.415.517zm21.054 87.12h20.31V33.948h-20.31v63.817zm88.515 0V55.28c0-4.017-.463-7.553-1.39-10.607-.927-3.052-2.7-5.845-5.32-8.377-3.787-3.775-8.763-5.664-14.929-5.664-2.7 0-5.47.543-8.31 1.628-2.841 1.084-5.228 2.59-7.163 4.52v-5.424h-19.826v66.408h20.31V58.05c0-3.374.876-5.745 2.629-7.11 1.753-1.366 3.596-2.049 5.53-2.049 1.935 0 3.778.673 5.53 2.018 1.754 1.347 2.63 3.727 2.63 7.141v39.713h20.309zm62.039-21.7c0-3.659-.716-6.933-2.146-9.827s-3.637-5.255-6.618-7.084c-2.983-1.828-6.75-2.943-11.303-3.345l-10.276-1.023c-2.9-.32-4.352-1.543-4.352-3.669 0-.962.545-1.845 1.632-2.647 1.089-.802 2.74-1.203 4.957-1.203 6.728 0 11.423 1.325 14.083 3.977l12.512-12.475c-3.104-3.092-6.77-5.221-11.001-6.387-4.23-1.165-9.308-1.748-15.231-1.748-3.467 0-6.78.472-9.943 1.416-3.165.943-5.975 2.317-8.432 4.123-2.458 1.806-4.423 4.114-5.893 6.923-1.472 2.81-2.207 5.959-2.207 9.45 0 4.215.786 7.676 2.358 10.385 1.572 2.71 3.817 4.775 6.739 6.2 2.92 1.424 6.317 2.318 10.185 2.678l10.275.963c3.223.28 4.835 1.685 4.835 4.211 0 1.524-.947 2.627-2.84 3.308a17.013 17.013 0 0 1-5.802 1.023c-7.093 0-12.493-1.868-16.199-5.604l-13.177 13.163c2.901 2.904 5.913 5.04 9.036 6.411 3.122 1.37 6.205 2.248 9.248 2.63 3.041.383 6.618.575 10.728.575 5.36 0 10.216-.803 14.568-2.411s7.817-4.09 10.396-7.446c2.578-3.355 3.868-7.545 3.868-12.568zm39.253 21.7V80.71h-6.468c-2.74 0-4.11-1.345-4.11-4.037V49.494h10.578V33.947h-10.578V14.964h-20.31v18.983h-6.104v15.547h6.105v28.624c0 3.215.736 6.338 2.21 9.37 1.473 3.035 3.765 5.505 6.873 7.413 3.11 1.91 6.986 2.863 11.629 2.863h10.175zm40.28-24.897c0 3.197-.645 5.414-1.934 6.653-1.088 1.038-2.217 1.707-3.385 2.007-1.17.3-2.741.45-4.714.45-2.096 0-3.728-.53-4.896-1.59-1.17-1.056-1.754-2.365-1.754-3.924 0-1.598.584-2.876 1.754-3.836 1.168-.957 2.719-1.438 4.653-1.438h10.276v1.678zm20.308 24.898V54.677c0-8.035-2.488-14.05-7.464-18.049-4.977-3.996-12.26-5.996-21.85-5.996-5.682 0-10.285.624-13.812 1.868-3.526 1.247-7.021 3.577-10.486 6.991l12.633 12.595c1.651-1.648 3.212-2.792 4.683-3.436 1.47-.641 3.455-.964 5.955-.964 3.586 0 6.154.614 7.706 1.838 1.55 1.226 2.327 3.365 2.327 6.418v1.688h-13.479c-5.077 0-9.319.884-12.722 2.65-3.406 1.77-5.915 4.099-7.525 6.99-1.614 2.894-2.42 6.109-2.42 9.642 0 6.47 1.955 11.652 5.864 15.549 3.948 3.938 9.268 5.905 15.957 5.905 3.424 0 6.205-.472 8.341-1.417 2.135-.942 4.312-2.479 6.528-4.608v5.423h19.764zm43.968-35.675c0 2.772-.161 5.073-.483 6.9-.323 1.828-1.068 3.334-2.238 4.52-1.168 1.185-2.9 1.777-5.197 1.777s-4.03-.592-5.199-1.778c-1.169-1.185-1.913-2.7-2.236-4.55-.322-1.847-.483-4.137-.483-6.87 0-2.77.16-5.07.483-6.9.323-1.827 1.067-3.333 2.236-4.519 1.169-1.184 2.902-1.777 5.199-1.777 2.297 0 4.029.593 5.197 1.777 1.17 1.186 1.915 2.703 2.238 4.55.322 1.849.483 4.138.483 6.87zM53.136 54.153a3.958 3.958 0 0 1-3.959-3.948 3.957 3.957 0 0 1 3.96-3.947 3.957 3.957 0 0 1 3.958 3.947 3.958 3.958 0 0 1-3.959 3.948zm0-12.75c-4.868 0-8.829 3.949-8.829 8.802 0 4.854 3.961 8.803 8.83 8.803 4.868 0 8.829-3.949 8.829-8.803 0-4.853-3.961-8.803-8.83-8.803zm-6.95 55.607a5.496 5.496 0 0 1-3.908 1.614 5.498 5.498 0 0 1-3.907-1.614L6.49 65.224a5.503 5.503 0 0 1 0-7.791l12.39-12.354V66.67c0 9.754 7.96 17.689 17.742 17.689h22.254l-12.69 12.65zM36.62 79.504c-7.097 0-12.872-5.757-12.872-12.833V33.74c0-.132.007-.262.01-.392L3.046 53.999a10.342 10.342 0 0 0 0 14.658l31.883 31.787a10.38 10.38 0 0 0 7.35 3.036c2.66 0 5.321-1.013 7.351-3.036L70.677 79.46c-.338.027-.68.045-1.025.045H36.621zm32.001-40.832a3.238 3.238 0 0 1-3.243-3.233 3.239 3.239 0 0 1 3.243-3.234 3.239 3.239 0 0 1 3.243 3.234 3.238 3.238 0 0 1-3.243 3.233zm2.537 11.053a17.813 17.813 0 0 0-1.32-6.288 8.055 8.055 0 0 0 1.32-.314v6.602zm0 16.947c0 .828-.676 1.501-1.507 1.501H53.608c9.564-.245 17.298-7.954 17.55-17.487v15.986zM39.978 50.205c0-7.234 5.903-13.119 13.158-13.119 7.256 0 13.16 5.885 13.16 13.119s-5.904 13.12-13.16 13.12c-7.255 0-13.158-5.886-13.158-13.12zM36.62 68.173a1.506 1.506 0 0 1-1.508-1.501V50.665c.242 9.544 7.981 17.263 17.552 17.508H36.621zM35.113 33.74c0-.829.677-1.502 1.508-1.502h16.044c-9.57.246-17.31 7.964-17.552 17.508V33.739zm26.058-1.502a8.066 8.066 0 0 0-.51 1.635 17.959 17.959 0 0 0-7.053-1.635h7.563zm8.481-4.856H36.621c-3.516 0-6.377 2.852-6.377 6.358v32.933c0 3.505 2.86 6.358 6.377 6.358h33.031c3.517 0 6.377-2.853 6.377-6.358V33.739c0-3.506-2.86-6.358-6.377-6.358zm7.471-11.408c0 .612.052 1.211.151 1.795a17.674 17.674 0 0 0-7.622-1.717H47.994l11.06-11.027L82.14 6.918c-3.012 1.897-5.017 5.248-5.017 9.055zm19.745 5.815l1.883 22.814-11.358 11.324V33.74c0-2.583-.559-5.039-1.56-7.253.655.125 1.334.19 2.026.19 3.77 0 7.094-1.947 9.01-4.888z"/>
</svg>
