<svg xmlns="http://www.w3.org/2000/svg" width="192" height="54" viewBox="0 0 192 54">
    <path fill="#FFF" fill-rule="evenodd" d="M50.068 10h-4.943L46 20.583 36.537 30c.012-.15.02-.3.02-.453V14.952c0-3.135-2.564-5.687-5.715-5.687H16.175c-.059 0-.117.003-.175.005L25.315 0 41.03 1.287a4.012 4.012 0 0 1 3.678 3.66L44.71 5h4.522c.119-.401.282-.789.492-1.163a5.54 5.54 0 0 1 1.999-2.066A5.265 5.265 0 0 1 54.5 1a5.27 5.27 0 0 1 2.777.771 5.542 5.542 0 0 1 1.999 2.066c.483.864.724 1.8.724 2.81a5.632 5.632 0 0 1-.738 2.838 5.57 5.57 0 0 1-1.998 2.051 5.262 5.262 0 0 1-2.764.758 5.26 5.26 0 0 1-2.763-.758A5.525 5.525 0 0 1 50.067 10zm-9.409-4.855a2.602 2.602 0 0 0-1.733-.657 2.598 2.598 0 0 0-2.604 2.591 2.598 2.598 0 0 0 2.604 2.592c.364 0 .71-.075 1.025-.209A2.498 2.498 0 0 1 39 7.5c0-1.084.693-2.01 1.659-2.355zM42.955 10h-.276a4.77 4.77 0 0 1-4.653 1.738c.445.981.693 2.07.693 3.214v9.833l5.043-5.019L42.955 10zm7.038 34V14.828h9.014V44h-9.014zM90 44h-9.274V26.253c0-1.525-.4-2.589-1.2-3.19-.8-.602-1.642-.903-2.526-.903-.883 0-1.725.305-2.525.916-.8.61-1.201 1.67-1.201 3.177V44H64V14.323h9.053v2.424c.884-.862 1.974-1.535 3.271-2.02 1.297-.484 2.562-.727 3.795-.727 2.815 0 5.088.844 6.817 2.531 1.196 1.132 2.006 2.38 2.43 3.744.423 1.365.634 2.945.634 4.74V44zm28-9.914c0 2.22-.58 4.073-1.738 5.556-1.16 1.484-2.717 2.581-4.673 3.292-1.956.71-4.14 1.066-6.548 1.066-1.848 0-3.456-.085-4.823-.254-1.367-.17-2.753-.557-4.157-1.163-1.403-.606-2.757-1.55-4.061-2.834l5.923-5.82c1.666 1.652 4.093 2.478 7.28 2.478.888 0 1.757-.151 2.609-.452.851-.302 1.277-.79 1.277-1.463 0-1.117-.725-1.738-2.174-1.862l-4.618-.426c-1.739-.159-3.265-.554-4.578-1.184-1.314-.63-2.323-1.543-3.03-2.74-.706-1.199-1.06-2.729-1.06-4.592 0-1.544.331-2.936.993-4.178a8.842 8.842 0 0 1 2.649-3.061c1.104-.799 2.367-1.406 3.79-1.823A15.795 15.795 0 0 1 105.53 14c2.662 0 4.945.258 6.846.772a11.095 11.095 0 0 1 4.945 2.825l-5.624 5.515c-1.196-1.172-3.306-1.758-6.33-1.758-.997 0-1.739.177-2.228.531-.489.355-.734.745-.734 1.171 0 .94.653 1.48 1.956 1.622l4.62.452c2.046.178 3.74.67 5.08 1.48 1.34.808 2.332 1.852 2.975 3.131.642 1.28.964 2.727.964 4.345zM136 44h-4.676c-2.134 0-3.915-.426-5.344-1.28-1.429-.852-2.482-1.956-3.159-3.312-.677-1.355-1.016-2.75-1.016-4.187v-12.79H119v-6.948h2.805V7h9.334v8.483H136v6.947h-4.861v12.145c0 1.203.629 1.804 1.889 1.804H136V44zm17.647-11.294v-.743h-4.733c-.89 0-1.605.212-2.143.637-.539.425-.807.99-.807 1.698 0 .69.268 1.27.807 1.739.538.469 1.29.703 2.255.703.909 0 1.633-.066 2.171-.199.538-.133 1.058-.429 1.56-.889.593-.548.89-1.53.89-2.946zM163 43.733h-9.103v-2.402c-1.02.943-2.023 1.624-3.006 2.042-.984.418-2.264.627-3.842.627-3.08 0-5.53-.871-7.348-2.616-1.8-1.725-2.701-4.02-2.701-6.886 0-1.565.371-2.99 1.114-4.27.742-1.281 1.897-2.313 3.466-3.096 1.567-.783 3.52-1.174 5.86-1.174h6.207v-.748c0-1.352-.358-2.3-1.072-2.842-.715-.543-1.897-.814-3.549-.814-1.151 0-2.065.142-2.742.427-.678.284-1.397.791-2.157 1.521l-5.818-5.578c1.595-1.512 3.205-2.544 4.83-3.096 1.623-.551 3.743-.828 6.36-.828 4.417 0 7.771.886 10.063 2.656 2.292 1.77 3.438 4.435 3.438 7.994v19.083zm19.647-16.302c0-1.253-.075-2.303-.223-3.151-.149-.847-.492-1.543-1.03-2.087-.538-.544-1.336-.816-2.394-.816s-1.856.272-2.394.816c-.539.544-.882 1.235-1.03 2.073-.149.839-.223 1.894-.223 3.165 0 1.254.074 2.305.223 3.152.148.848.491 1.544 1.03 2.088.538.544 1.336.815 2.394.815s1.856-.271 2.394-.815c.538-.544.881-1.235 1.03-2.074.148-.838.223-1.894.223-3.166zM192 41.587c0 1.77-.325 3.419-.974 4.948a11.255 11.255 0 0 1-2.812 3.968c-1.225 1.115-2.705 1.976-4.44 2.585-1.735.608-3.615.912-5.637.912-1.726 0-3.248-.12-4.565-.36a13.758 13.758 0 0 1-3.716-1.23c-1.16-.58-2.232-1.378-3.216-2.391l5.79-5.778a6.164 6.164 0 0 0 2.352 1.48c.882.303 1.852.455 2.91.455 1.763 0 3.029-.466 3.8-1.396.77-.93 1.155-2.014 1.155-3.249V39.32c-1.69 1.696-3.888 2.543-6.597 2.543-2.989 0-5.392-.903-7.21-2.71-.891-.884-1.541-1.865-1.95-2.943a12.353 12.353 0 0 1-.75-3.47c-.094-1.235-.14-3.004-.14-5.309 0-1.769.023-3.123.07-4.063.046-.94.162-1.903.348-2.89.185-.985.463-1.856.835-2.612.37-.755.9-1.474 1.587-2.157.853-.847 1.916-1.51 3.187-1.99s2.63-.719 4.078-.719c1.503 0 2.783.23 3.841.691 1.058.461 2.05 1.171 2.979 2.13v-2.49H192v28.256zM24 23.794c.989 0 1.794-.805 1.794-1.794 0-.99-.805-1.794-1.794-1.794s-1.794.805-1.794 1.794.805 1.794 1.794 1.794zM24 18c2.206 0 4 1.794 4 4s-1.794 4-4 4-4-1.794-4-4 1.794-4 4-4zm-3.089 26.048l5.745-5.772H16.581c-4.43 0-8.033-3.62-8.033-8.07v-9.853l-5.61 5.637a2.525 2.525 0 0 0 0 3.555l14.435 14.503a2.48 2.48 0 0 0 1.77.736c.668 0 1.296-.261 1.768-.736zm-4.33-7.988h14.955a5.8 5.8 0 0 0 .464-.02l-9.53 9.575A4.682 4.682 0 0 1 19.142 47a4.68 4.68 0 0 1-3.328-1.385L1.38 31.111a4.745 4.745 0 0 1 0-6.688L10.758 15c-.002.06-.005.119-.005.18v15.025c0 3.229 2.614 5.855 5.828 5.855zm14.183-19.113a1.417 1.417 0 1 0 0-2.833 1.417 1.417 0 0 0 0 2.833zm1.108 4.842v-2.892a3.51 3.51 0 0 1-.576.138c.348.854.55 1.782.576 2.754zm0 7.425v-7.003c-.11 4.176-3.488 7.554-7.666 7.661h7.008a.659.659 0 0 0 .658-.658zM18.252 22A5.755 5.755 0 0 0 24 27.748 5.755 5.755 0 0 0 29.748 22 5.754 5.754 0 0 0 24 16.252 5.754 5.754 0 0 0 18.252 22zm-1.466 7.872h7.008c-4.18-.107-7.561-3.49-7.667-7.67v7.012c0 .363.296.658.659.658zm-.659-15.086v7.012c.106-4.181 3.486-7.563 7.667-7.67h-7.008a.659.659 0 0 0-.659.658zm11.383-.659h-3.304a7.825 7.825 0 0 1 3.081.717c.05-.25.125-.489.223-.717zM31.214 12A2.789 2.789 0 0 1 34 14.786v14.428A2.789 2.789 0 0 1 31.214 32H16.786A2.79 2.79 0 0 1 14 29.214V14.786A2.79 2.79 0 0 1 16.786 12h14.428zm2.945-4.921a4.74 4.74 0 0 1 2.228-4.013l-10.251-.84-4.91 4.888h9.616a7.86 7.86 0 0 1 3.384.76 4.747 4.747 0 0 1-.067-.795z"/>
</svg>
